<svg width="13" height="16" viewBox="0 0 13 16" fill="none" xmlns="http://www.w3.org/2000/svg">
  <path d="M5.56818 15.5H0.31807C0.31807 15.5 0.31807 11.0501 0.31807 8.19886C0.31807 5.36978 0.31807 1.00002 0.31807 1.00002L5.76705 0.954545C7.17803 0.954545 8.38542 1.24574 9.3892 1.82812C10.393 2.40578 11.1624 3.23674 11.6974 4.32102C12.2325 5.40057 12.5 6.69318 12.5 8.19886C12.5 9.71401 12.2301 11.0185 11.6903 12.1122C11.1506 13.2012 10.3646 14.0393 9.33239 14.6264C8.30019 15.2088 7.04545 15.5 5.56818 15.5ZM2.84091 13.9375H4.65909C5.86174 13.9375 6.85843 13.7055 7.64915 13.2415C8.43987 12.7775 9.02936 12.117 9.41761 11.2599C9.80587 10.4029 10 9.38258 10 8.19886C10 7.02462 9.80824 6.01373 9.42472 5.16619C9.04119 4.31392 8.46828 3.66051 7.70597 3.20597C6.94366 2.74669 5.99432 2.51705 4.85795 2.51705H2.84091V13.9375Z" fill="#E29312" />
</svg>